<svg width="24" height="48" viewBox="0 0 24 48" fill="none" xmlns="http://www.w3.org/2000/svg">
<path d="M22.9425 12.803L18.66 8.72305C18.435 8.51305 18.315 8.24305 18.315 7.95805V7.50055C18.315 7.31305 18.285 7.12555 18.24 6.94555C19.1475 6.57055 19.785 5.73805 19.785 4.77055V2.63305C19.785 1.31305 18.6225 0.248047 17.19 0.248047H6.36C4.935 0.248047 3.78 1.32055 3.78 2.63305V4.77055C3.78 5.71555 4.38 6.52555 5.2425 6.90805C5.19 7.10305 5.16 7.29805 5.16 7.50055V8.01805C5.16 8.27305 5.0475 8.53555 4.86 8.73805L0.93 12.863C0.45 13.3805 0.1875 14.018 0.1875 14.6555V45.0905C0.1875 46.6955 1.7625 48.0005 3.6975 48.0005H20.31C22.245 48.0005 23.82 46.6955 23.82 45.0905V14.7155C23.8125 14.0105 23.505 13.328 22.9425 12.803V12.803ZM2.2875 22.088C4.5825 21.6305 9.135 21.0605 11.5275 22.1705C12.645 22.688 13.995 22.883 15.36 22.883C17.7675 22.883 20.2425 22.298 21.705 21.8855V24.713C19.53 25.3805 15.0675 26.3855 12.705 25.283C9.6075 23.843 4.56 24.5405 2.28 24.9605V22.088H2.2875ZM5.88 2.63305C5.88 2.26555 6.135 1.98805 6.36 1.98805H17.1975C17.43 1.98805 17.6925 2.26555 17.6925 2.63305V4.77055C17.6925 5.13805 17.43 5.41555 17.1975 5.41555H6.36C6.135 5.41555 5.88 5.13805 5.88 4.77055V2.63305V2.63305ZM2.5875 13.9355L6.1875 10.1555H10.425C11.0025 10.1555 11.475 9.76555 11.475 9.28555C11.475 8.80555 11.0025 8.41555 10.425 8.41555H7.215C7.2375 8.28805 7.2525 8.15305 7.2525 8.02555V7.50055C7.2525 7.38055 7.275 7.26055 7.3125 7.15555H16.155C16.2 7.26805 16.215 7.38055 16.215 7.50055V7.95055C16.215 8.66305 16.5225 9.33805 17.085 9.86305L21.3675 13.943C21.5925 14.153 21.7125 14.423 21.7125 14.708V20.0255C19.605 20.7005 14.985 21.773 12.555 20.6405C9.5325 19.2305 4.635 19.868 2.2875 20.288V14.6405C2.2875 14.4005 2.4 14.138 2.5875 13.9355V13.9355ZM20.3025 46.2605H3.6975C2.925 46.2605 2.2875 45.7355 2.2875 45.0905V26.7455C4.5225 26.288 9.2325 25.658 11.685 26.798C12.8025 27.3155 14.1525 27.5105 15.525 27.5105C17.85 27.5105 20.235 26.9705 21.72 26.558V45.098C21.7125 45.7355 21.0825 46.2605 20.3025 46.2605V46.2605Z" fill="#3196D3"/>
</svg>
